<svg xmlns="http://www.w3.org/2000/svg" xmlns:xlink="http://www.w3.org/1999/xlink" width="500" zoomAndPan="magnify" viewBox="0 0 375 374.999991" height="500" preserveAspectRatio="xMidYMid meet" version="1.0"><defs><g/><clipPath id="c5b9304fc1"><rect x="0" width="189" y="0" height="35"/></clipPath><clipPath id="dd5488e80e"><path d="M 37.5 139.035156 L 129 139.035156 L 129 230 L 37.5 230 Z M 37.5 139.035156 " clip-rule="nonzero"/></clipPath></defs><g transform="matrix(1, 0, 0, 1, 144, 170)"><g clip-path="url(#c5b9304fc1)"><g fill="#010101" fill-opacity="1"><g transform="translate(0.830386, 24.333774)"><g><path d="M 18.875 0 L 15.28125 -12.609375 L 11.6875 0 L 5.984375 0 L -0.40625 -22.46875 L 5.28125 -22.46875 L 9.125 -7.046875 L 9.265625 -7.046875 L 13.34375 -22.46875 L 17.21875 -22.46875 L 21.296875 -7.046875 L 21.4375 -7.046875 L 25.28125 -22.46875 L 30.9375 -22.46875 L 24.53125 0 Z M 18.875 0 "/></g></g></g><g fill="#010101" fill-opacity="1"><g transform="translate(34.092311, 24.333774)"><g><path d="M 14.484375 -22.46875 L 14.484375 -17.96875 L 6.75 -17.96875 L 6.75 -13.515625 L 14.15625 -13.515625 L 14.15625 -9.015625 L 6.75 -9.015625 L 6.75 -4.5 L 14.484375 -4.5 L 14.484375 0 L 1.640625 0 L 1.640625 -22.46875 Z M 14.484375 -22.46875 "/></g></g></g><g fill="#010101" fill-opacity="1"><g transform="translate(52.616805, 24.333774)"><g><path d="M 1.640625 -22.46875 L 8.609375 -22.46875 C 10.710938 -22.46875 12.390625 -22.015625 13.640625 -21.109375 C 14.898438 -20.210938 15.53125 -18.757812 15.53125 -16.75 C 15.53125 -14.5 14.59375 -12.890625 12.71875 -11.921875 C 15.914062 -11.359375 17.515625 -9.472656 17.515625 -6.265625 C 17.515625 -4.378906 16.859375 -2.863281 15.546875 -1.71875 C 14.242188 -0.570312 12.445312 0 10.15625 0 L 1.640625 0 Z M 6.75 -13.671875 L 7.15625 -13.671875 C 8.300781 -13.671875 9.15625 -13.867188 9.71875 -14.265625 C 10.28125 -14.671875 10.5625 -15.328125 10.5625 -16.234375 C 10.5625 -17.753906 9.425781 -18.515625 7.15625 -18.515625 L 6.75 -18.515625 Z M 6.75 -3.953125 L 8.359375 -3.953125 C 10.867188 -3.953125 12.125 -4.785156 12.125 -6.453125 C 12.125 -7.453125 11.804688 -8.171875 11.171875 -8.609375 C 10.546875 -9.046875 9.609375 -9.265625 8.359375 -9.265625 L 6.75 -9.265625 Z M 6.75 -3.953125 "/></g></g></g><g fill="#010101" fill-opacity="1"><g transform="translate(73.484034, 24.333774)"><g><path d="M 9.90625 -22.875 C 11.125 -22.875 12.3125 -22.695312 13.46875 -22.34375 C 14.632812 -21.988281 15.5 -21.640625 16.0625 -21.296875 L 16.890625 -20.75 L 14.8125 -16.671875 C 14.65625 -16.773438 14.429688 -16.910156 14.140625 -17.078125 C 13.847656 -17.253906 13.300781 -17.488281 12.5 -17.78125 C 11.695312 -18.070312 10.953125 -18.21875 10.265625 -18.21875 C 9.410156 -18.21875 8.75 -18.035156 8.28125 -17.671875 C 7.820312 -17.304688 7.59375 -16.816406 7.59375 -16.203125 C 7.59375 -15.890625 7.703125 -15.601562 7.921875 -15.34375 C 8.140625 -15.082031 8.507812 -14.800781 9.03125 -14.5 C 9.5625 -14.195312 10.023438 -13.957031 10.421875 -13.78125 C 10.828125 -13.601562 11.445312 -13.332031 12.28125 -12.96875 C 13.738281 -12.34375 14.976562 -11.5 16 -10.4375 C 17.019531 -9.375 17.53125 -8.171875 17.53125 -6.828125 C 17.53125 -5.546875 17.300781 -4.421875 16.84375 -3.453125 C 16.382812 -2.492188 15.75 -1.738281 14.9375 -1.1875 C 14.125 -0.644531 13.226562 -0.242188 12.25 0.015625 C 11.269531 0.273438 10.207031 0.40625 9.0625 0.40625 C 8.082031 0.40625 7.117188 0.304688 6.171875 0.109375 C 5.234375 -0.0859375 4.445312 -0.335938 3.8125 -0.640625 C 3.175781 -0.941406 2.601562 -1.234375 2.09375 -1.515625 C 1.582031 -1.804688 1.210938 -2.054688 0.984375 -2.265625 L 0.625 -2.5625 L 3.1875 -6.859375 C 3.40625 -6.679688 3.703125 -6.453125 4.078125 -6.171875 C 4.460938 -5.890625 5.140625 -5.507812 6.109375 -5.03125 C 7.085938 -4.5625 7.945312 -4.328125 8.6875 -4.328125 C 10.84375 -4.328125 11.921875 -5.0625 11.921875 -6.53125 C 11.921875 -6.84375 11.84375 -7.128906 11.6875 -7.390625 C 11.539062 -7.648438 11.269531 -7.910156 10.875 -8.171875 C 10.488281 -8.441406 10.144531 -8.65625 9.84375 -8.8125 C 9.539062 -8.96875 9.050781 -9.203125 8.375 -9.515625 C 7.695312 -9.835938 7.191406 -10.078125 6.859375 -10.234375 C 5.503906 -10.910156 4.453125 -11.75 3.703125 -12.75 C 2.960938 -13.757812 2.59375 -14.847656 2.59375 -16.015625 C 2.59375 -18.023438 3.332031 -19.671875 4.8125 -20.953125 C 6.300781 -22.234375 8 -22.875 9.90625 -22.875 Z M 9.90625 -22.875 "/></g></g></g><g fill="#010101" fill-opacity="1"><g transform="translate(94.514708, 24.333774)"><g><path d="M 0.21875 -17.96875 L 0.21875 -22.46875 L 16.015625 -22.46875 L 16.015625 -17.96875 L 10.671875 -17.96875 L 10.671875 0 L 5.5625 0 L 5.5625 -17.96875 Z M 0.21875 -17.96875 "/></g></g></g><g fill="#010101" fill-opacity="1"><g transform="translate(113.475064, 24.333774)"><g><path d="M 1.640625 -22.46875 L 9.671875 -22.46875 C 11.828125 -22.46875 13.585938 -21.890625 14.953125 -20.734375 C 16.316406 -19.585938 17 -17.941406 17 -15.796875 C 17 -14.140625 16.582031 -12.753906 15.75 -11.640625 C 14.925781 -10.523438 13.804688 -9.738281 12.390625 -9.28125 L 20.125 0 L 13.609375 0 L 6.75 -8.875 L 6.75 0 L 1.640625 0 Z M 6.75 -12.5 L 7.359375 -12.5 C 7.828125 -12.5 8.222656 -12.507812 8.546875 -12.53125 C 8.878906 -12.550781 9.253906 -12.613281 9.671875 -12.71875 C 10.085938 -12.820312 10.421875 -12.972656 10.671875 -13.171875 C 10.929688 -13.378906 11.148438 -13.671875 11.328125 -14.046875 C 11.515625 -14.429688 11.609375 -14.894531 11.609375 -15.4375 C 11.609375 -15.988281 11.515625 -16.453125 11.328125 -16.828125 C 11.148438 -17.210938 10.929688 -17.503906 10.671875 -17.703125 C 10.421875 -17.898438 10.085938 -18.050781 9.671875 -18.15625 C 9.253906 -18.269531 8.878906 -18.335938 8.546875 -18.359375 C 8.222656 -18.378906 7.828125 -18.390625 7.359375 -18.390625 L 6.75 -18.390625 Z M 6.75 -12.5 "/></g></g></g><g fill="#010101" fill-opacity="1"><g transform="translate(135.704343, 24.333774)"><g><path d="M 6.75 -22.46875 L 6.75 0 L 1.640625 0 L 1.640625 -22.46875 Z M 6.75 -22.46875 "/></g></g></g><g fill="#010101" fill-opacity="1"><g transform="translate(146.819274, 24.333774)"><g><path d="M 1.640625 -22.46875 L 8.140625 -22.46875 C 11.265625 -22.46875 13.929688 -21.398438 16.140625 -19.265625 C 18.359375 -17.128906 19.46875 -14.457031 19.46875 -11.25 C 19.46875 -8.019531 18.363281 -5.335938 16.15625 -3.203125 C 13.957031 -1.066406 11.285156 0 8.140625 0 L 1.640625 0 Z M 6.75 -4.578125 L 7.546875 -4.578125 C 9.410156 -4.578125 10.9375 -5.207031 12.125 -6.46875 C 13.320312 -7.726562 13.925781 -9.3125 13.9375 -11.21875 C 13.9375 -13.125 13.34375 -14.710938 12.15625 -15.984375 C 10.96875 -17.253906 9.429688 -17.890625 7.546875 -17.890625 L 6.75 -17.890625 Z M 6.75 -4.578125 "/></g></g></g><g fill="#010101" fill-opacity="1"><g transform="translate(169.647843, 24.333774)"><g><path d="M 14.484375 -22.46875 L 14.484375 -17.96875 L 6.75 -17.96875 L 6.75 -13.515625 L 14.15625 -13.515625 L 14.15625 -9.015625 L 6.75 -9.015625 L 6.75 -4.5 L 14.484375 -4.5 L 14.484375 0 L 1.640625 0 L 1.640625 -22.46875 Z M 14.484375 -22.46875 "/></g></g></g></g></g><g fill="#7570f5" fill-opacity="1"><g transform="translate(187.173267, 214.423697)"><g><path d="M 3.734375 0.140625 C 3.078125 0.140625 2.4375 0.0507812 1.8125 -0.125 C 1.195312 -0.300781 0.703125 -0.535156 0.328125 -0.828125 L 0.984375 -2.28125 C 1.347656 -2.019531 1.773438 -1.804688 2.265625 -1.640625 C 2.765625 -1.484375 3.257812 -1.40625 3.75 -1.40625 C 4.300781 -1.40625 4.707031 -1.488281 4.96875 -1.65625 C 5.226562 -1.820312 5.359375 -2.039062 5.359375 -2.3125 C 5.359375 -2.507812 5.28125 -2.671875 5.125 -2.796875 C 4.976562 -2.929688 4.78125 -3.035156 4.53125 -3.109375 C 4.289062 -3.191406 3.960938 -3.28125 3.546875 -3.375 C 2.910156 -3.53125 2.390625 -3.679688 1.984375 -3.828125 C 1.578125 -3.984375 1.226562 -4.226562 0.9375 -4.5625 C 0.644531 -4.894531 0.5 -5.34375 0.5 -5.90625 C 0.5 -6.394531 0.628906 -6.832031 0.890625 -7.21875 C 1.160156 -7.613281 1.554688 -7.925781 2.078125 -8.15625 C 2.609375 -8.394531 3.257812 -8.515625 4.03125 -8.515625 C 4.5625 -8.515625 5.082031 -8.445312 5.59375 -8.3125 C 6.101562 -8.1875 6.550781 -8.003906 6.9375 -7.765625 L 6.328125 -6.296875 C 5.554688 -6.734375 4.785156 -6.953125 4.015625 -6.953125 C 3.472656 -6.953125 3.070312 -6.863281 2.8125 -6.6875 C 2.550781 -6.519531 2.421875 -6.289062 2.421875 -6 C 2.421875 -5.707031 2.570312 -5.492188 2.875 -5.359375 C 3.175781 -5.222656 3.632812 -5.085938 4.25 -4.953125 C 4.882812 -4.796875 5.40625 -4.640625 5.8125 -4.484375 C 6.21875 -4.335938 6.566406 -4.097656 6.859375 -3.765625 C 7.148438 -3.441406 7.296875 -3.003906 7.296875 -2.453125 C 7.296875 -1.972656 7.160156 -1.535156 6.890625 -1.140625 C 6.617188 -0.742188 6.21875 -0.429688 5.6875 -0.203125 C 5.15625 0.0234375 4.503906 0.140625 3.734375 0.140625 Z M 3.734375 0.140625 "/></g></g></g><g fill="#7570f5" fill-opacity="1"><g transform="translate(199.57239, 214.423697)"><g><path d="M 2.71875 -6.796875 L 0.046875 -6.796875 L 0.046875 -8.359375 L 7.34375 -8.359375 L 7.34375 -6.796875 L 4.65625 -6.796875 L 4.65625 0 L 2.71875 0 Z M 2.71875 -6.796875 "/></g></g></g><g fill="#7570f5" fill-opacity="1"><g transform="translate(211.732687, 214.423697)"><g><path d="M 4.703125 0.140625 C 3.515625 0.140625 2.585938 -0.1875 1.921875 -0.84375 C 1.253906 -1.507812 0.921875 -2.457031 0.921875 -3.6875 L 0.921875 -8.359375 L 2.859375 -8.359375 L 2.859375 -3.75 C 2.859375 -2.25 3.476562 -1.5 4.71875 -1.5 C 5.320312 -1.5 5.785156 -1.679688 6.109375 -2.046875 C 6.429688 -2.410156 6.59375 -2.976562 6.59375 -3.75 L 6.59375 -8.359375 L 8.5 -8.359375 L 8.5 -3.6875 C 8.5 -2.457031 8.164062 -1.507812 7.5 -0.84375 C 6.832031 -0.1875 5.898438 0.140625 4.703125 0.140625 Z M 4.703125 0.140625 "/></g></g></g><g fill="#7570f5" fill-opacity="1"><g transform="translate(225.923017, 214.423697)"><g><path d="M 0.984375 -8.359375 L 4.796875 -8.359375 C 5.703125 -8.359375 6.503906 -8.1875 7.203125 -7.84375 C 7.898438 -7.5 8.441406 -7.007812 8.828125 -6.375 C 9.210938 -5.75 9.40625 -5.019531 9.40625 -4.1875 C 9.40625 -3.34375 9.210938 -2.609375 8.828125 -1.984375 C 8.441406 -1.359375 7.898438 -0.867188 7.203125 -0.515625 C 6.503906 -0.171875 5.703125 0 4.796875 0 L 0.984375 0 Z M 4.703125 -1.59375 C 5.535156 -1.59375 6.203125 -1.820312 6.703125 -2.28125 C 7.203125 -2.75 7.453125 -3.382812 7.453125 -4.1875 C 7.453125 -4.976562 7.203125 -5.609375 6.703125 -6.078125 C 6.203125 -6.546875 5.535156 -6.78125 4.703125 -6.78125 L 2.921875 -6.78125 L 2.921875 -1.59375 Z M 4.703125 -1.59375 "/></g></g></g><g fill="#7570f5" fill-opacity="1"><g transform="translate(240.567116, 214.423697)"><g><path d="M 0.984375 -8.359375 L 2.921875 -8.359375 L 2.921875 0 L 0.984375 0 Z M 0.984375 -8.359375 "/></g></g></g><g fill="#7570f5" fill-opacity="1"><g transform="translate(249.264419, 214.423697)"><g><path d="M 5.046875 0.140625 C 4.171875 0.140625 3.382812 -0.046875 2.6875 -0.421875 C 2 -0.796875 1.457031 -1.3125 1.0625 -1.96875 C 0.664062 -2.625 0.46875 -3.363281 0.46875 -4.1875 C 0.46875 -5.007812 0.664062 -5.75 1.0625 -6.40625 C 1.457031 -7.0625 2 -7.578125 2.6875 -7.953125 C 3.382812 -8.328125 4.171875 -8.515625 5.046875 -8.515625 C 5.910156 -8.515625 6.6875 -8.328125 7.375 -7.953125 C 8.070312 -7.578125 8.617188 -7.0625 9.015625 -6.40625 C 9.421875 -5.75 9.625 -5.007812 9.625 -4.1875 C 9.625 -3.363281 9.421875 -2.625 9.015625 -1.96875 C 8.617188 -1.3125 8.070312 -0.796875 7.375 -0.421875 C 6.6875 -0.046875 5.910156 0.140625 5.046875 0.140625 Z M 5.046875 -1.5 C 5.535156 -1.5 5.976562 -1.613281 6.375 -1.84375 C 6.78125 -2.070312 7.09375 -2.390625 7.3125 -2.796875 C 7.539062 -3.203125 7.65625 -3.664062 7.65625 -4.1875 C 7.65625 -4.695312 7.539062 -5.15625 7.3125 -5.5625 C 7.09375 -5.976562 6.78125 -6.296875 6.375 -6.515625 C 5.976562 -6.742188 5.535156 -6.859375 5.046875 -6.859375 C 4.546875 -6.859375 4.097656 -6.742188 3.703125 -6.515625 C 3.304688 -6.296875 2.992188 -5.976562 2.765625 -5.5625 C 2.535156 -5.15625 2.421875 -4.695312 2.421875 -4.1875 C 2.421875 -3.664062 2.535156 -3.203125 2.765625 -2.796875 C 2.992188 -2.390625 3.304688 -2.070312 3.703125 -1.84375 C 4.097656 -1.613281 4.546875 -1.5 5.046875 -1.5 Z M 5.046875 -1.5 "/></g></g></g><g fill="#7570f5" fill-opacity="1"><g transform="translate(264.123461, 214.423697)"><g><path d="M 3.734375 0.140625 C 3.078125 0.140625 2.4375 0.0507812 1.8125 -0.125 C 1.195312 -0.300781 0.703125 -0.535156 0.328125 -0.828125 L 0.984375 -2.28125 C 1.347656 -2.019531 1.773438 -1.804688 2.265625 -1.640625 C 2.765625 -1.484375 3.257812 -1.40625 3.75 -1.40625 C 4.300781 -1.40625 4.707031 -1.488281 4.96875 -1.65625 C 5.226562 -1.820312 5.359375 -2.039062 5.359375 -2.3125 C 5.359375 -2.507812 5.28125 -2.671875 5.125 -2.796875 C 4.976562 -2.929688 4.78125 -3.035156 4.53125 -3.109375 C 4.289062 -3.191406 3.960938 -3.28125 3.546875 -3.375 C 2.910156 -3.53125 2.390625 -3.679688 1.984375 -3.828125 C 1.578125 -3.984375 1.226562 -4.226562 0.9375 -4.5625 C 0.644531 -4.894531 0.5 -5.34375 0.5 -5.90625 C 0.5 -6.394531 0.628906 -6.832031 0.890625 -7.21875 C 1.160156 -7.613281 1.554688 -7.925781 2.078125 -8.15625 C 2.609375 -8.394531 3.257812 -8.515625 4.03125 -8.515625 C 4.5625 -8.515625 5.082031 -8.445312 5.59375 -8.3125 C 6.101562 -8.1875 6.550781 -8.003906 6.9375 -7.765625 L 6.328125 -6.296875 C 5.554688 -6.734375 4.785156 -6.953125 4.015625 -6.953125 C 3.472656 -6.953125 3.070312 -6.863281 2.8125 -6.6875 C 2.550781 -6.519531 2.421875 -6.289062 2.421875 -6 C 2.421875 -5.707031 2.570312 -5.492188 2.875 -5.359375 C 3.175781 -5.222656 3.632812 -5.085938 4.25 -4.953125 C 4.882812 -4.796875 5.40625 -4.640625 5.8125 -4.484375 C 6.21875 -4.335938 6.566406 -4.097656 6.859375 -3.765625 C 7.148438 -3.441406 7.296875 -3.003906 7.296875 -2.453125 C 7.296875 -1.972656 7.160156 -1.535156 6.890625 -1.140625 C 6.617188 -0.742188 6.21875 -0.429688 5.6875 -0.203125 C 5.15625 0.0234375 4.503906 0.140625 3.734375 0.140625 Z M 3.734375 0.140625 "/></g></g></g><g clip-path="url(#dd5488e80e)"><path fill="#7570f5" d="M 83.976562 229.820312 C 79.621094 230.074219 75.199219 229.632812 70.921875 228.523438 C 68.78125 227.976562 66.679688 227.25 64.640625 226.375 C 62.597656 225.5 60.621094 224.453125 58.726562 223.277344 C 54.9375 220.917969 51.492188 217.96875 48.554688 214.5625 C 45.613281 211.15625 43.171875 207.292969 41.363281 203.140625 C 39.542969 198.992188 38.363281 194.550781 37.863281 190.03125 C 37.734375 188.898438 37.660156 187.765625 37.609375 186.628906 C 37.570312 185.492188 37.570312 184.351562 37.613281 183.214844 C 37.621094 182.929688 37.640625 182.644531 37.65625 182.359375 L 37.675781 181.933594 L 37.710938 181.507812 C 37.734375 181.222656 37.75 180.9375 37.777344 180.65625 L 37.867188 179.804688 C 37.890625 179.519531 37.9375 179.238281 37.972656 178.957031 C 38.007812 178.671875 38.042969 178.390625 38.089844 178.109375 L 38.222656 177.261719 L 38.375 176.421875 C 39.222656 171.933594 40.753906 167.570312 42.894531 163.53125 C 43.964844 161.507812 45.191406 159.570312 46.546875 157.730469 C 47.230469 156.8125 47.941406 155.917969 48.6875 155.046875 C 49.4375 154.183594 50.214844 153.34375 51.019531 152.535156 C 51.832031 151.726562 52.671875 150.949219 53.535156 150.199219 C 54.402344 149.457031 55.296875 148.742188 56.214844 148.058594 C 58.054688 146.703125 59.996094 145.476562 62.015625 144.40625 C 64.035156 143.335938 66.136719 142.414062 68.292969 141.65625 C 69.371094 141.273438 70.464844 140.945312 71.566406 140.648438 C 72.667969 140.34375 73.785156 140.101562 74.90625 139.882812 L 75.75 139.730469 L 76.59375 139.597656 C 76.875 139.550781 77.160156 139.515625 77.441406 139.480469 C 77.726562 139.445312 78.007812 139.402344 78.289062 139.375 L 79.140625 139.285156 C 79.425781 139.257812 79.710938 139.238281 79.992188 139.214844 L 80.417969 139.183594 L 80.847656 139.160156 C 81.132812 139.148438 81.414062 139.128906 81.699219 139.121094 C 82.269531 139.105469 82.839844 139.085938 83.40625 139.089844 C 83.976562 139.082031 84.542969 139.101562 85.113281 139.117188 C 86.25 139.167969 87.386719 139.242188 88.515625 139.367188 C 90.777344 139.621094 93.019531 140.039062 95.214844 140.625 C 97.40625 141.210938 99.554688 141.960938 101.632812 142.867188 C 105.785156 144.679688 109.644531 147.117188 113.050781 150.0625 C 116.457031 153.003906 119.40625 156.449219 121.769531 160.234375 C 122.945312 162.132812 123.988281 164.109375 124.863281 166.148438 C 125.308594 167.167969 125.699219 168.207031 126.0625 169.253906 C 126.429688 170.300781 126.734375 171.363281 127.015625 172.433594 C 128.125 176.710938 128.5625 181.136719 128.308594 185.488281 C 128.050781 181.136719 127.21875 176.855469 125.800781 172.800781 C 125.089844 170.777344 124.242188 168.804688 123.253906 166.914062 C 122.753906 165.96875 122.242188 165.035156 121.679688 164.132812 C 121.117188 163.230469 120.535156 162.339844 119.910156 161.480469 C 117.429688 158.035156 114.472656 154.960938 111.148438 152.378906 C 107.828125 149.792969 104.148438 147.699219 100.257812 146.179688 C 96.367188 144.65625 92.269531 143.710938 88.128906 143.371094 C 87.09375 143.28125 86.054688 143.242188 85.015625 143.226562 C 83.976562 143.222656 82.9375 143.242188 81.902344 143.300781 C 79.832031 143.433594 77.773438 143.699219 75.746094 144.125 C 71.691406 144.964844 67.769531 146.398438 64.140625 148.367188 C 63.234375 148.863281 62.335938 149.378906 61.46875 149.941406 C 60.601562 150.5 59.75 151.082031 58.921875 151.703125 C 58.097656 152.324219 57.289062 152.964844 56.507812 153.640625 C 55.726562 154.320312 54.972656 155.023438 54.238281 155.753906 C 53.511719 156.484375 52.808594 157.238281 52.128906 158.019531 C 51.453125 158.800781 50.8125 159.609375 50.1875 160.433594 C 49.570312 161.257812 48.984375 162.113281 48.425781 162.980469 C 47.867188 163.847656 47.351562 164.746094 46.855469 165.648438 C 44.882812 169.28125 43.449219 173.203125 42.605469 177.257812 C 42.1875 179.285156 41.914062 181.34375 41.785156 183.414062 C 41.761719 183.933594 41.730469 184.453125 41.722656 184.96875 C 41.703125 185.488281 41.710938 186.007812 41.707031 186.527344 C 41.726562 187.566406 41.765625 188.605469 41.855469 189.640625 C 42.195312 193.785156 43.140625 197.882812 44.660156 201.773438 C 46.183594 205.664062 48.277344 209.34375 50.859375 212.664062 C 53.441406 215.988281 56.519531 218.949219 59.964844 221.425781 C 63.410156 223.910156 67.234375 225.898438 71.289062 227.316406 C 75.34375 228.734375 79.625 229.566406 83.976562 229.820312 Z M 83.976562 229.820312 " fill-opacity="1" fill-rule="nonzero"/></g><path fill="#7570f5" d="M 75.558594 142.335938 C 66.953125 153.878906 61.949219 168.066406 61.398438 182.453125 C 60.847656 196.839844 64.757812 211.367188 72.453125 223.535156 C 66.980469 210.074219 64.371094 195.347656 65.808594 180.890625 C 67.246094 166.433594 72.84375 152.285156 82.378906 141.324219 C 80.144531 141.59375 77.910156 141.859375 75.554688 142.335938 Z M 75.558594 142.335938 " fill-opacity="1" fill-rule="nonzero"/><path fill="#7570f5" d="M 82.160156 140.558594 C 82.742188 168.445312 83.328125 196.332031 83.910156 224.21875 C 86.089844 196.734375 87.113281 169.152344 86.976562 141.578125 C 85.28125 141.332031 83.582031 141.082031 82.160156 140.558594 Z M 82.160156 140.558594 " fill-opacity="1" fill-rule="nonzero"/><path fill="#7570f5" d="M 88.914062 141.402344 C 97.371094 152.53125 102.523438 166.144531 103.550781 180.085938 C 104.582031 194.027344 101.484375 208.246094 94.753906 220.5 C 103.019531 211.457031 107.199219 199.160156 107.808594 186.921875 C 108.417969 174.683594 105.667969 162.476562 101.449219 150.972656 C 100.5625 148.558594 99.570312 146.101562 97.8125 144.222656 C 96.054688 142.34375 93.347656 141.136719 88.914062 141.402344 Z M 88.914062 141.402344 " fill-opacity="1" fill-rule="nonzero"/><path fill="#7570f5" d="M 40.316406 185.691406 C 69.714844 184.128906 99.234375 184.792969 128.535156 187.675781 C 99.390625 189.625 70.207031 190.902344 41.027344 192.175781 C 40.214844 190.375 39.929688 188.335938 40.316406 185.691406 Z M 40.316406 185.691406 " fill-opacity="1" fill-rule="nonzero"/><path fill="#7570f5" d="M 45.566406 162.253906 C 69.683594 154.195312 96.535156 154.582031 120.414062 163.335938 C 107.691406 161.855469 94.898438 160.695312 82.097656 161.007812 C 69.292969 161.320312 56.441406 163.136719 44.394531 167.472656 C 45 166.09375 45.605469 164.710938 45.5625 162.253906 Z M 45.566406 162.253906 " fill-opacity="1" fill-rule="nonzero"/><path fill="#7570f5" d="M 41.992188 200.929688 C 51.578125 204.816406 61.945312 206.484375 72.273438 206.957031 C 82.605469 207.429688 92.953125 206.730469 103.269531 206.03125 C 100.21875 208.007812 96.433594 208.390625 92.804688 208.640625 C 78.148438 209.660156 63.402344 209.429688 48.78125 207.945312 C 47.542969 207.820312 46.226562 207.652344 45.265625 206.859375 C 43.628906 205.496094 43.5625 202.734375 41.996094 200.929688 Z M 41.992188 200.929688 " fill-opacity="1" fill-rule="nonzero"/></svg>