<svg xmlns="http://www.w3.org/2000/svg" xmlns:xlink="http://www.w3.org/1999/xlink" width="500" zoomAndPan="magnify" viewBox="0 0 375 374.999991" height="500" preserveAspectRatio="xMidYMid meet" version="1.0"><defs><g/><clipPath id="d93f591509"><path d="M 126.03125 110.230469 L 249 110.230469 L 249 233 L 126.03125 233 Z M 126.03125 110.230469 " clip-rule="nonzero"/></clipPath></defs><g fill="#010101" fill-opacity="1"><g transform="translate(60.856328, 282.746261)"><g><path d="M 25.90625 0 L 20.96875 -17.296875 L 16.03125 0 L 8.21875 0 L -0.5625 -30.828125 L 7.25 -30.828125 L 12.515625 -9.6875 L 12.703125 -9.6875 L 18.3125 -30.828125 L 23.625 -30.828125 L 29.234375 -9.6875 L 29.421875 -9.6875 L 34.6875 -30.828125 L 42.453125 -30.828125 L 33.671875 0 Z M 25.90625 0 "/></g></g></g><g fill="#010101" fill-opacity="1"><g transform="translate(106.487135, 282.746261)"><g><path d="M 19.890625 -30.828125 L 19.890625 -24.671875 L 9.265625 -24.671875 L 9.265625 -18.53125 L 19.4375 -18.53125 L 19.4375 -12.375 L 9.265625 -12.375 L 9.265625 -6.171875 L 19.890625 -6.171875 L 19.890625 0 L 2.25 0 L 2.25 -30.828125 Z M 19.890625 -30.828125 "/></g></g></g><g fill="#010101" fill-opacity="1"><g transform="translate(131.900204, 282.746261)"><g><path d="M 2.25 -30.828125 L 11.8125 -30.828125 C 14.695312 -30.828125 17 -30.210938 18.71875 -28.984375 C 20.4375 -27.753906 21.296875 -25.753906 21.296875 -22.984375 C 21.296875 -19.890625 20.015625 -17.6875 17.453125 -16.375 C 21.835938 -15.601562 24.03125 -13.007812 24.03125 -8.59375 C 24.03125 -6 23.132812 -3.914062 21.34375 -2.34375 C 19.550781 -0.78125 17.082031 0 13.9375 0 L 2.25 0 Z M 9.265625 -18.765625 L 9.828125 -18.765625 C 11.398438 -18.765625 12.570312 -19.035156 13.34375 -19.578125 C 14.113281 -20.128906 14.5 -21.03125 14.5 -22.28125 C 14.5 -24.375 12.941406 -25.421875 9.828125 -25.421875 L 9.265625 -25.421875 Z M 9.265625 -5.421875 L 11.46875 -5.421875 C 14.90625 -5.421875 16.625 -6.566406 16.625 -8.859375 C 16.625 -10.222656 16.191406 -11.203125 15.328125 -11.796875 C 14.472656 -12.398438 13.1875 -12.703125 11.46875 -12.703125 L 9.265625 -12.703125 Z M 9.265625 -5.421875 "/></g></g></g><g fill="#010101" fill-opacity="1"><g transform="translate(160.527186, 282.746261)"><g><path d="M 13.609375 -31.390625 C 15.273438 -31.390625 16.90625 -31.144531 18.5 -30.65625 C 20.09375 -30.175781 21.273438 -29.703125 22.046875 -29.234375 L 23.171875 -28.484375 L 20.328125 -22.875 C 20.109375 -23.019531 19.796875 -23.210938 19.390625 -23.453125 C 18.992188 -23.691406 18.25 -24.007812 17.15625 -24.40625 C 16.0625 -24.800781 15.039062 -25 14.09375 -25 C 12.914062 -25 12.007812 -24.75 11.375 -24.25 C 10.738281 -23.757812 10.421875 -23.085938 10.421875 -22.234375 C 10.421875 -21.816406 10.570312 -21.425781 10.875 -21.0625 C 11.175781 -20.695312 11.6875 -20.304688 12.40625 -19.890625 C 13.132812 -19.484375 13.769531 -19.15625 14.3125 -18.90625 C 14.863281 -18.65625 15.710938 -18.285156 16.859375 -17.796875 C 18.847656 -16.941406 20.546875 -15.785156 21.953125 -14.328125 C 23.359375 -12.867188 24.0625 -11.21875 24.0625 -9.375 C 24.0625 -7.613281 23.742188 -6.070312 23.109375 -4.75 C 22.472656 -3.425781 21.601562 -2.390625 20.5 -1.640625 C 19.394531 -0.890625 18.164062 -0.335938 16.8125 0.015625 C 15.46875 0.378906 14.015625 0.5625 12.453125 0.5625 C 11.097656 0.5625 9.773438 0.421875 8.484375 0.140625 C 7.191406 -0.128906 6.109375 -0.46875 5.234375 -0.875 C 4.359375 -1.289062 3.570312 -1.695312 2.875 -2.09375 C 2.175781 -2.488281 1.664062 -2.828125 1.34375 -3.109375 L 0.859375 -3.515625 L 4.375 -9.421875 C 4.675781 -9.171875 5.085938 -8.851562 5.609375 -8.46875 C 6.128906 -8.082031 7.054688 -7.5625 8.390625 -6.90625 C 9.722656 -6.257812 10.898438 -5.9375 11.921875 -5.9375 C 14.890625 -5.9375 16.375 -6.945312 16.375 -8.96875 C 16.375 -9.394531 16.265625 -9.785156 16.046875 -10.140625 C 15.835938 -10.503906 15.460938 -10.863281 14.921875 -11.21875 C 14.390625 -11.582031 13.914062 -11.867188 13.5 -12.078125 C 13.09375 -12.296875 12.421875 -12.625 11.484375 -13.0625 C 10.554688 -13.5 9.867188 -13.828125 9.421875 -14.046875 C 7.546875 -14.972656 6.097656 -16.125 5.078125 -17.5 C 4.054688 -18.882812 3.546875 -20.375 3.546875 -21.96875 C 3.546875 -24.738281 4.566406 -27 6.609375 -28.75 C 8.660156 -30.507812 10.992188 -31.390625 13.609375 -31.390625 Z M 13.609375 -31.390625 "/></g></g></g><g fill="#010101" fill-opacity="1"><g transform="translate(189.378392, 282.746261)"><g><path d="M 0.296875 -24.671875 L 0.296875 -30.828125 L 21.96875 -30.828125 L 21.96875 -24.671875 L 14.65625 -24.671875 L 14.65625 0 L 7.625 0 L 7.625 -24.671875 Z M 0.296875 -24.671875 "/></g></g></g><g fill="#010101" fill-opacity="1"><g transform="translate(215.389403, 282.746261)"><g><path d="M 2.25 -30.828125 L 13.265625 -30.828125 C 16.234375 -30.828125 18.648438 -30.035156 20.515625 -28.453125 C 22.390625 -26.878906 23.328125 -24.617188 23.328125 -21.671875 C 23.328125 -19.410156 22.757812 -17.507812 21.625 -15.96875 C 20.488281 -14.4375 18.945312 -13.363281 17 -12.75 L 27.625 0 L 18.6875 0 L 9.265625 -12.1875 L 9.265625 0 L 2.25 0 Z M 9.265625 -17.15625 L 10.09375 -17.15625 C 10.738281 -17.15625 11.285156 -17.164062 11.734375 -17.1875 C 12.179688 -17.21875 12.691406 -17.304688 13.265625 -17.453125 C 13.835938 -17.597656 14.296875 -17.804688 14.640625 -18.078125 C 14.992188 -18.359375 15.296875 -18.757812 15.546875 -19.28125 C 15.796875 -19.8125 15.921875 -20.445312 15.921875 -21.1875 C 15.921875 -21.9375 15.796875 -22.570312 15.546875 -23.09375 C 15.296875 -23.613281 14.992188 -24.007812 14.640625 -24.28125 C 14.296875 -24.5625 13.835938 -24.773438 13.265625 -24.921875 C 12.691406 -25.078125 12.179688 -25.164062 11.734375 -25.1875 C 11.285156 -25.21875 10.738281 -25.234375 10.09375 -25.234375 L 9.265625 -25.234375 Z M 9.265625 -17.15625 "/></g></g></g><g fill="#010101" fill-opacity="1"><g transform="translate(245.884931, 282.746261)"><g><path d="M 9.265625 -30.828125 L 9.265625 0 L 2.25 0 L 2.25 -30.828125 Z M 9.265625 -30.828125 "/></g></g></g><g fill="#010101" fill-opacity="1"><g transform="translate(261.133095, 282.746261)"><g><path d="M 2.25 -30.828125 L 11.171875 -30.828125 C 15.460938 -30.828125 19.125 -29.363281 22.15625 -26.4375 C 25.195312 -23.507812 26.71875 -19.84375 26.71875 -15.4375 C 26.71875 -11 25.203125 -7.316406 22.171875 -4.390625 C 19.148438 -1.460938 15.484375 0 11.171875 0 L 2.25 0 Z M 9.265625 -6.28125 L 10.359375 -6.28125 C 12.921875 -6.28125 15.015625 -7.144531 16.640625 -8.875 C 18.273438 -10.601562 19.109375 -12.78125 19.140625 -15.40625 C 19.140625 -18.019531 18.320312 -20.195312 16.6875 -21.9375 C 15.050781 -23.6875 12.941406 -24.5625 10.359375 -24.5625 L 9.265625 -24.5625 Z M 9.265625 -6.28125 "/></g></g></g><g fill="#010101" fill-opacity="1"><g transform="translate(292.450766, 282.746261)"><g><path d="M 19.890625 -30.828125 L 19.890625 -24.671875 L 9.265625 -24.671875 L 9.265625 -18.53125 L 19.4375 -18.53125 L 19.4375 -12.375 L 9.265625 -12.375 L 9.265625 -6.171875 L 19.890625 -6.171875 L 19.890625 0 L 2.25 0 L 2.25 -30.828125 Z M 19.890625 -30.828125 "/></g></g></g><g fill="#7570f5" fill-opacity="1"><g transform="translate(145.209327, 302.641708)"><g><path d="M 3.734375 0.140625 C 3.078125 0.140625 2.4375 0.0507812 1.8125 -0.125 C 1.195312 -0.300781 0.703125 -0.535156 0.328125 -0.828125 L 0.984375 -2.28125 C 1.347656 -2.019531 1.773438 -1.804688 2.265625 -1.640625 C 2.765625 -1.484375 3.257812 -1.40625 3.75 -1.40625 C 4.300781 -1.40625 4.707031 -1.488281 4.96875 -1.65625 C 5.226562 -1.820312 5.359375 -2.039062 5.359375 -2.3125 C 5.359375 -2.507812 5.28125 -2.671875 5.125 -2.796875 C 4.976562 -2.929688 4.78125 -3.035156 4.53125 -3.109375 C 4.289062 -3.191406 3.960938 -3.28125 3.546875 -3.375 C 2.910156 -3.53125 2.390625 -3.679688 1.984375 -3.828125 C 1.578125 -3.984375 1.226562 -4.226562 0.9375 -4.5625 C 0.644531 -4.894531 0.5 -5.34375 0.5 -5.90625 C 0.5 -6.394531 0.628906 -6.832031 0.890625 -7.21875 C 1.160156 -7.613281 1.554688 -7.925781 2.078125 -8.15625 C 2.609375 -8.394531 3.257812 -8.515625 4.03125 -8.515625 C 4.5625 -8.515625 5.082031 -8.445312 5.59375 -8.3125 C 6.101562 -8.1875 6.550781 -8.003906 6.9375 -7.765625 L 6.328125 -6.296875 C 5.554688 -6.734375 4.785156 -6.953125 4.015625 -6.953125 C 3.472656 -6.953125 3.070312 -6.863281 2.8125 -6.6875 C 2.550781 -6.519531 2.421875 -6.289062 2.421875 -6 C 2.421875 -5.707031 2.570312 -5.492188 2.875 -5.359375 C 3.175781 -5.222656 3.632812 -5.085938 4.25 -4.953125 C 4.882812 -4.796875 5.40625 -4.640625 5.8125 -4.484375 C 6.21875 -4.335938 6.566406 -4.097656 6.859375 -3.765625 C 7.148438 -3.441406 7.296875 -3.003906 7.296875 -2.453125 C 7.296875 -1.972656 7.160156 -1.535156 6.890625 -1.140625 C 6.617188 -0.742188 6.21875 -0.429688 5.6875 -0.203125 C 5.15625 0.0234375 4.503906 0.140625 3.734375 0.140625 Z M 3.734375 0.140625 "/></g></g></g><g fill="#7570f5" fill-opacity="1"><g transform="translate(157.608451, 302.641708)"><g><path d="M 2.71875 -6.796875 L 0.046875 -6.796875 L 0.046875 -8.359375 L 7.34375 -8.359375 L 7.34375 -6.796875 L 4.65625 -6.796875 L 4.65625 0 L 2.71875 0 Z M 2.71875 -6.796875 "/></g></g></g><g fill="#7570f5" fill-opacity="1"><g transform="translate(169.768747, 302.641708)"><g><path d="M 4.703125 0.140625 C 3.515625 0.140625 2.585938 -0.1875 1.921875 -0.84375 C 1.253906 -1.507812 0.921875 -2.457031 0.921875 -3.6875 L 0.921875 -8.359375 L 2.859375 -8.359375 L 2.859375 -3.75 C 2.859375 -2.25 3.476562 -1.5 4.71875 -1.5 C 5.320312 -1.5 5.785156 -1.679688 6.109375 -2.046875 C 6.429688 -2.410156 6.59375 -2.976562 6.59375 -3.75 L 6.59375 -8.359375 L 8.5 -8.359375 L 8.5 -3.6875 C 8.5 -2.457031 8.164062 -1.507812 7.5 -0.84375 C 6.832031 -0.1875 5.898438 0.140625 4.703125 0.140625 Z M 4.703125 0.140625 "/></g></g></g><g fill="#7570f5" fill-opacity="1"><g transform="translate(183.959077, 302.641708)"><g><path d="M 0.984375 -8.359375 L 4.796875 -8.359375 C 5.703125 -8.359375 6.503906 -8.1875 7.203125 -7.84375 C 7.898438 -7.5 8.441406 -7.007812 8.828125 -6.375 C 9.210938 -5.75 9.40625 -5.019531 9.40625 -4.1875 C 9.40625 -3.34375 9.210938 -2.609375 8.828125 -1.984375 C 8.441406 -1.359375 7.898438 -0.867188 7.203125 -0.515625 C 6.503906 -0.171875 5.703125 0 4.796875 0 L 0.984375 0 Z M 4.703125 -1.59375 C 5.535156 -1.59375 6.203125 -1.820312 6.703125 -2.28125 C 7.203125 -2.75 7.453125 -3.382812 7.453125 -4.1875 C 7.453125 -4.976562 7.203125 -5.609375 6.703125 -6.078125 C 6.203125 -6.546875 5.535156 -6.78125 4.703125 -6.78125 L 2.921875 -6.78125 L 2.921875 -1.59375 Z M 4.703125 -1.59375 "/></g></g></g><g fill="#7570f5" fill-opacity="1"><g transform="translate(198.603176, 302.641708)"><g><path d="M 0.984375 -8.359375 L 2.921875 -8.359375 L 2.921875 0 L 0.984375 0 Z M 0.984375 -8.359375 "/></g></g></g><g fill="#7570f5" fill-opacity="1"><g transform="translate(207.300479, 302.641708)"><g><path d="M 5.046875 0.140625 C 4.171875 0.140625 3.382812 -0.046875 2.6875 -0.421875 C 2 -0.796875 1.457031 -1.3125 1.0625 -1.96875 C 0.664062 -2.625 0.46875 -3.363281 0.46875 -4.1875 C 0.46875 -5.007812 0.664062 -5.75 1.0625 -6.40625 C 1.457031 -7.0625 2 -7.578125 2.6875 -7.953125 C 3.382812 -8.328125 4.171875 -8.515625 5.046875 -8.515625 C 5.910156 -8.515625 6.6875 -8.328125 7.375 -7.953125 C 8.070312 -7.578125 8.617188 -7.0625 9.015625 -6.40625 C 9.421875 -5.75 9.625 -5.007812 9.625 -4.1875 C 9.625 -3.363281 9.421875 -2.625 9.015625 -1.96875 C 8.617188 -1.3125 8.070312 -0.796875 7.375 -0.421875 C 6.6875 -0.046875 5.910156 0.140625 5.046875 0.140625 Z M 5.046875 -1.5 C 5.535156 -1.5 5.976562 -1.613281 6.375 -1.84375 C 6.78125 -2.070312 7.09375 -2.390625 7.3125 -2.796875 C 7.539062 -3.203125 7.65625 -3.664062 7.65625 -4.1875 C 7.65625 -4.695312 7.539062 -5.15625 7.3125 -5.5625 C 7.09375 -5.976562 6.78125 -6.296875 6.375 -6.515625 C 5.976562 -6.742188 5.535156 -6.859375 5.046875 -6.859375 C 4.546875 -6.859375 4.097656 -6.742188 3.703125 -6.515625 C 3.304688 -6.296875 2.992188 -5.976562 2.765625 -5.5625 C 2.535156 -5.15625 2.421875 -4.695312 2.421875 -4.1875 C 2.421875 -3.664062 2.535156 -3.203125 2.765625 -2.796875 C 2.992188 -2.390625 3.304688 -2.070312 3.703125 -1.84375 C 4.097656 -1.613281 4.546875 -1.5 5.046875 -1.5 Z M 5.046875 -1.5 "/></g></g></g><g fill="#7570f5" fill-opacity="1"><g transform="translate(222.159521, 302.641708)"><g><path d="M 3.734375 0.140625 C 3.078125 0.140625 2.4375 0.0507812 1.8125 -0.125 C 1.195312 -0.300781 0.703125 -0.535156 0.328125 -0.828125 L 0.984375 -2.28125 C 1.347656 -2.019531 1.773438 -1.804688 2.265625 -1.640625 C 2.765625 -1.484375 3.257812 -1.40625 3.75 -1.40625 C 4.300781 -1.40625 4.707031 -1.488281 4.96875 -1.65625 C 5.226562 -1.820312 5.359375 -2.039062 5.359375 -2.3125 C 5.359375 -2.507812 5.28125 -2.671875 5.125 -2.796875 C 4.976562 -2.929688 4.78125 -3.035156 4.53125 -3.109375 C 4.289062 -3.191406 3.960938 -3.28125 3.546875 -3.375 C 2.910156 -3.53125 2.390625 -3.679688 1.984375 -3.828125 C 1.578125 -3.984375 1.226562 -4.226562 0.9375 -4.5625 C 0.644531 -4.894531 0.5 -5.34375 0.5 -5.90625 C 0.5 -6.394531 0.628906 -6.832031 0.890625 -7.21875 C 1.160156 -7.613281 1.554688 -7.925781 2.078125 -8.15625 C 2.609375 -8.394531 3.257812 -8.515625 4.03125 -8.515625 C 4.5625 -8.515625 5.082031 -8.445312 5.59375 -8.3125 C 6.101562 -8.1875 6.550781 -8.003906 6.9375 -7.765625 L 6.328125 -6.296875 C 5.554688 -6.734375 4.785156 -6.953125 4.015625 -6.953125 C 3.472656 -6.953125 3.070312 -6.863281 2.8125 -6.6875 C 2.550781 -6.519531 2.421875 -6.289062 2.421875 -6 C 2.421875 -5.707031 2.570312 -5.492188 2.875 -5.359375 C 3.175781 -5.222656 3.632812 -5.085938 4.25 -4.953125 C 4.882812 -4.796875 5.40625 -4.640625 5.8125 -4.484375 C 6.21875 -4.335938 6.566406 -4.097656 6.859375 -3.765625 C 7.148438 -3.441406 7.296875 -3.003906 7.296875 -2.453125 C 7.296875 -1.972656 7.160156 -1.535156 6.890625 -1.140625 C 6.617188 -0.742188 6.21875 -0.429688 5.6875 -0.203125 C 5.15625 0.0234375 4.503906 0.140625 3.734375 0.140625 Z M 3.734375 0.140625 "/></g></g></g><g clip-path="url(#d93f591509)"><path fill="#7570f5" d="M 188.699219 232.667969 C 182.828125 233.007812 176.863281 232.414062 171.09375 230.917969 C 168.207031 230.175781 165.378906 229.195312 162.625 228.015625 C 159.871094 226.835938 157.207031 225.429688 154.648438 223.839844 C 149.539062 220.65625 144.894531 216.679688 140.929688 212.085938 C 136.960938 207.492188 133.675781 202.285156 131.230469 196.683594 C 128.78125 191.089844 127.1875 185.101562 126.511719 179.003906 C 126.339844 177.476562 126.238281 175.945312 126.171875 174.414062 C 126.121094 172.878906 126.117188 171.34375 126.175781 169.808594 C 126.1875 169.425781 126.210938 169.042969 126.230469 168.660156 L 126.261719 168.082031 L 126.304688 167.507812 C 126.335938 167.125 126.363281 166.742188 126.398438 166.359375 L 126.515625 165.210938 C 126.550781 164.828125 126.609375 164.449219 126.65625 164.066406 C 126.707031 163.6875 126.753906 163.304688 126.820312 162.925781 L 126.996094 161.785156 L 127.203125 160.648438 C 128.34375 154.597656 130.410156 148.710938 133.296875 143.261719 C 134.738281 140.535156 136.394531 137.925781 138.222656 135.441406 C 139.144531 134.203125 140.105469 132.996094 141.113281 131.824219 C 142.121094 130.660156 143.171875 129.527344 144.257812 128.433594 C 145.351562 127.347656 146.484375 126.296875 147.648438 125.289062 C 148.816406 124.28125 150.027344 123.320312 151.261719 122.398438 C 153.746094 120.570312 156.359375 118.914062 159.082031 117.472656 C 161.8125 116.03125 164.640625 114.785156 167.550781 113.765625 C 169.003906 113.25 170.480469 112.808594 171.964844 112.402344 C 173.453125 111.992188 174.957031 111.664062 176.46875 111.375 L 177.605469 111.167969 L 178.746094 110.988281 C 179.125 110.925781 179.507812 110.878906 179.890625 110.828125 C 180.269531 110.78125 180.652344 110.722656 181.035156 110.6875 L 182.179688 110.566406 C 182.5625 110.53125 182.949219 110.503906 183.328125 110.472656 L 183.90625 110.429688 L 184.480469 110.398438 C 184.863281 110.382812 185.246094 110.355469 185.632812 110.34375 C 186.398438 110.324219 187.167969 110.296875 187.933594 110.300781 C 188.699219 110.292969 189.46875 110.320312 190.234375 110.339844 C 191.769531 110.40625 193.300781 110.507812 194.824219 110.679688 C 197.875 111.019531 200.898438 111.582031 203.855469 112.371094 C 206.816406 113.164062 209.710938 114.171875 212.511719 115.398438 C 218.113281 117.839844 223.320312 121.132812 227.914062 125.101562 C 232.507812 129.066406 236.484375 133.710938 239.667969 138.820312 C 241.257812 141.378906 242.664062 144.042969 243.84375 146.796875 C 244.441406 148.171875 244.96875 149.574219 245.457031 150.984375 C 245.953125 152.394531 246.367188 153.828125 246.746094 155.269531 C 248.238281 161.039062 248.832031 167.007812 248.488281 172.875 C 248.144531 167.007812 247.019531 161.234375 245.105469 155.765625 C 244.144531 153.035156 243.007812 150.375 241.671875 147.824219 C 240.996094 146.554688 240.308594 145.292969 239.546875 144.078125 C 238.789062 142.855469 238.003906 141.660156 237.164062 140.5 C 233.820312 135.851562 229.828125 131.703125 225.347656 128.222656 C 220.867188 124.738281 215.90625 121.914062 210.660156 119.863281 C 205.414062 117.8125 199.886719 116.535156 194.300781 116.078125 C 192.902344 115.957031 191.503906 115.902344 190.105469 115.878906 C 188.703125 115.875 187.300781 115.902344 185.90625 115.984375 C 183.113281 116.160156 180.335938 116.523438 177.601562 117.089844 C 172.136719 118.226562 166.847656 120.160156 161.949219 122.816406 C 160.726562 123.484375 159.519531 124.179688 158.347656 124.9375 C 157.179688 125.691406 156.027344 126.476562 154.914062 127.3125 C 153.800781 128.148438 152.710938 129.015625 151.65625 129.929688 C 150.605469 130.84375 149.585938 131.792969 148.597656 132.773438 C 147.617188 133.761719 146.667969 134.78125 145.75 135.832031 C 144.839844 136.882812 143.972656 137.976562 143.136719 139.085938 C 142.300781 140.203125 141.511719 141.351562 140.757812 142.523438 C 140.003906 143.695312 139.308594 144.902344 138.636719 146.121094 C 135.980469 151.019531 134.046875 156.3125 132.910156 161.777344 C 132.339844 164.511719 131.976562 167.289062 131.800781 170.082031 C 131.769531 170.78125 131.726562 171.480469 131.71875 172.179688 C 131.691406 172.878906 131.699219 173.578125 131.699219 174.28125 C 131.722656 175.679688 131.773438 177.082031 131.894531 178.476562 C 132.351562 184.066406 133.628906 189.59375 135.679688 194.839844 C 137.730469 200.085938 140.554688 205.046875 144.039062 209.527344 C 147.523438 214.011719 151.671875 218.003906 156.320312 221.34375 C 160.96875 224.691406 166.125 227.375 171.589844 229.289062 C 177.058594 231.199219 182.832031 232.320312 188.703125 232.664062 Z M 188.699219 232.667969 " fill-opacity="1" fill-rule="nonzero"/></g><path fill="#7570f5" d="M 177.347656 114.679688 C 165.746094 130.25 158.996094 149.378906 158.253906 168.78125 C 157.511719 188.183594 162.785156 207.777344 173.164062 224.1875 C 165.78125 206.035156 162.261719 186.171875 164.199219 166.675781 C 166.140625 147.179688 173.6875 128.097656 186.550781 113.316406 C 183.535156 113.679688 180.523438 114.039062 177.347656 114.679688 Z M 177.347656 114.679688 " fill-opacity="1" fill-rule="nonzero"/><path fill="#7570f5" d="M 186.253906 112.28125 C 187.039062 149.890625 187.824219 187.503906 188.613281 225.113281 C 191.554688 188.042969 192.933594 150.847656 192.75 113.660156 C 190.460938 113.324219 188.171875 112.992188 186.253906 112.28125 Z M 186.253906 112.28125 " fill-opacity="1" fill-rule="nonzero"/><path fill="#7570f5" d="M 195.359375 113.421875 C 206.765625 128.429688 213.714844 146.789062 215.101562 165.589844 C 216.488281 184.390625 212.3125 203.570312 203.234375 220.09375 C 214.386719 207.898438 220.023438 191.3125 220.84375 174.808594 C 221.664062 158.308594 217.953125 141.84375 212.265625 126.328125 C 211.070312 123.070312 209.734375 119.757812 207.363281 117.222656 C 204.992188 114.6875 201.339844 113.066406 195.359375 113.421875 Z M 195.359375 113.421875 " fill-opacity="1" fill-rule="nonzero"/><path fill="#7570f5" d="M 129.820312 173.148438 C 169.46875 171.042969 209.28125 171.941406 248.796875 175.824219 C 209.492188 178.457031 170.132812 180.179688 130.78125 181.898438 C 129.683594 179.46875 129.300781 176.71875 129.820312 173.148438 Z M 129.820312 173.148438 " fill-opacity="1" fill-rule="nonzero"/><path fill="#7570f5" d="M 136.898438 141.542969 C 169.425781 130.675781 205.640625 131.195312 237.84375 143 C 220.6875 141.007812 203.433594 139.4375 186.167969 139.859375 C 168.898438 140.28125 151.570312 142.730469 135.316406 148.582031 C 136.136719 146.71875 136.949219 144.859375 136.898438 141.542969 Z M 136.898438 141.542969 " fill-opacity="1" fill-rule="nonzero"/><path fill="#7570f5" d="M 132.082031 193.703125 C 145.007812 198.941406 158.988281 201.195312 172.921875 201.828125 C 186.855469 202.464844 200.804688 201.523438 214.722656 200.585938 C 210.605469 203.246094 205.5 203.761719 200.609375 204.101562 C 180.839844 205.476562 160.953125 205.164062 141.238281 203.164062 C 139.566406 202.996094 137.789062 202.769531 136.496094 201.695312 C 134.289062 199.863281 134.195312 196.132812 132.082031 193.703125 Z M 132.082031 193.703125 " fill-opacity="1" fill-rule="nonzero"/></svg>